<svg width="64" height="64" viewBox="0 0 64 64" fill="none" xmlns="http://www.w3.org/2000/svg">
<path fill-rule="evenodd" clip-rule="evenodd" d="M56.0001 21.3333H39.1734L41.7067 9.14663L41.7867 8.29329C41.7867 7.19996 41.3334 6.18663 40.6134 5.46663L37.7867 2.66663L20.2401 20.24C19.2534 21.2 18.6667 22.5333 18.6667 24V50.6666C18.6667 53.6 21.0667 56 24.0001 56H48.0001C50.2134 56 52.1067 54.6666 52.9067 52.7466L60.9601 33.9466C61.2001 33.3333 61.3334 32.6933 61.3334 32V26.6666C61.3334 23.7333 58.9334 21.3333 56.0001 21.3333ZM56.0001 32L48.0001 50.6666H24.0001V24L35.5734 12.4266L32.6134 26.6666H56.0001V32ZM2.66675 24H13.3334V56H2.66675V24Z" fill="white"/>
</svg>
